<svg id="svg" version="1.1" xmlns="http://www.w3.org/2000/svg" xmlns:xlink="http://www.w3.org/1999/xlink" width="400" height="400" viewBox="0, 0, 400,400"><g id="svgg"><path id="path0" d="M117.963 79.354 L 55.741 81.998 55.849 84.981 C 56.843 112.276,57.379 124.910,57.553 125.084 C 57.670 125.201,67.976 125.620,80.457 126.015 L 103.148 126.733 146.296 125.636 L 189.444 124.538 191.416 125.852 C 202.629 133.320,204.260 150.654,194.687 160.626 L 192.037 163.387 161.852 163.903 L 131.667 164.420 111.481 166.291 C 100.380 167.321,90.213 168.343,88.889 168.564 C 64.200 172.671,45.158 194.448,42.649 221.445 C 42.406 224.056,44.574 292.510,44.909 292.797 C 45.007 292.881,359.696 306.694,360.926 306.668 C 361.554 306.655,362.303 304.969,365.833 295.629 L 370.000 284.606 370.000 264.340 L 370.000 244.074 367.315 244.060 C 346.850 243.951,122.835 238.911,122.615 238.554 C 122.464 238.310,122.235 233.494,122.106 227.852 C 121.867 217.411,122.062 214.975,123.369 212.106 L 123.810 211.140 158.108 211.020 L 192.407 210.900 196.292 209.879 C 203.941 207.868,231.723 198.810,235.035 197.247 C 272.489 179.568,279.787 126.611,248.625 98.624 C 239.128 90.095,234.585 88.128,210.000 81.898 C 185.998 75.816,195.236 76.071,117.963 79.354 " stroke="none" fill="#fc0e0e" fill-rule="evenodd"></path><path id="path1" d="M0.000 200.000 L 0.000 400.000 200.000 400.000 L 400.000 400.000 400.000 200.000 L 400.000 0.000 367.130 0.012 C 331.511 0.025,332.963 -0.061,332.963 2.034 C 332.963 3.038,330.810 5.556,329.952 5.556 C 329.751 5.556,329.689 5.723,329.815 5.927 C 330.394 6.862,329.565 9.630,328.707 9.630 C 328.246 9.630,327.661 9.880,327.407 10.185 C 327.154 10.491,326.637 10.741,326.259 10.741 C 325.882 10.741,325.314 11.135,324.998 11.617 C 324.565 12.279,323.859 12.596,322.119 12.911 C 320.852 13.140,319.481 13.410,319.074 13.510 C 318.667 13.611,317.779 13.799,317.101 13.930 C 316.303 14.083,315.726 14.477,315.467 15.046 C 315.221 15.587,314.750 15.926,314.245 15.926 C 313.103 15.926,312.359 16.865,312.943 17.569 C 314.282 19.182,312.097 20.343,307.390 20.519 C 305.326 20.596,303.452 20.845,303.226 21.071 C 302.117 22.180,299.689 21.317,299.642 19.798 C 299.623 19.159,299.492 17.787,299.317 16.389 C 299.134 14.921,297.407 16.231,297.407 17.839 C 297.407 18.268,297.213 18.515,296.944 18.424 C 296.690 18.338,296.477 17.949,296.472 17.560 C 296.442 15.206,293.149 14.348,291.082 16.155 C 289.836 17.245,287.778 16.265,287.778 14.582 C 287.778 12.921,285.730 12.325,285.341 13.873 C 285.216 14.374,285.190 14.999,285.284 15.262 C 285.889 16.954,280.178 17.906,278.452 16.401 C 278.111 16.103,277.516 15.959,277.131 16.081 C 275.751 16.519,274.539 14.651,275.281 13.227 C 276.991 9.942,276.390 9.300,272.157 9.889 C 267.127 10.589,264.448 9.661,265.550 7.602 C 265.915 6.921,265.883 6.547,265.376 5.566 C 264.648 4.159,264.876 2.784,265.930 2.220 C 266.359 1.990,266.667 1.445,266.667 0.913 L 266.667 0.000 133.333 0.000 L 0.000 0.000 0.000 200.000 M263.538 3.736 C 263.856 4.250,263.152 4.975,262.641 4.660 C 262.216 4.397,262.488 3.333,262.981 3.333 C 263.151 3.333,263.402 3.515,263.538 3.736 M201.852 6.345 C 201.852 6.716,202.436 7.551,203.150 8.200 C 204.318 9.263,204.393 9.443,203.896 9.992 C 203.517 10.411,203.463 10.723,203.724 10.984 C 203.986 11.245,203.926 11.514,203.534 11.839 C 203.220 12.100,202.963 12.511,202.963 12.753 C 202.963 13.310,200.956 14.815,200.213 14.815 C 199.400 14.815,198.889 13.617,198.889 11.713 C 198.889 10.795,198.743 9.954,198.565 9.844 C 198.387 9.734,198.637 8.862,199.121 7.907 C 199.604 6.952,200.000 5.893,200.000 5.555 C 200.000 5.216,200.111 4.827,200.248 4.691 C 200.625 4.314,201.852 5.579,201.852 6.345 M193.397 8.761 C 193.769 9.098,194.074 9.697,194.074 10.092 C 194.074 10.487,194.391 10.893,194.778 10.994 C 195.877 11.282,196.002 13.198,194.965 13.878 C 193.927 14.558,193.045 17.478,192.872 20.814 C 192.784 22.514,192.540 23.519,192.095 24.010 C 190.813 25.426,193.342 28.809,195.313 28.315 C 195.905 28.166,196.265 28.272,196.405 28.637 C 196.519 28.936,197.376 29.561,198.307 30.027 C 199.239 30.492,200.258 31.265,200.573 31.745 C 200.887 32.225,201.414 32.570,201.743 32.512 C 203.164 32.263,204.731 36.517,204.714 40.576 C 204.706 42.602,204.739 44.593,204.788 45.000 C 205.006 46.812,204.519 48.387,203.392 49.514 C 202.749 50.157,202.222 51.030,202.222 51.453 C 202.222 51.904,201.982 52.222,201.643 52.222 C 201.263 52.222,201.104 51.951,201.180 51.433 C 201.339 50.353,200.264 49.690,199.450 50.366 C 199.111 50.648,198.918 51.184,199.019 51.569 C 199.243 52.424,197.951 53.006,195.564 53.123 C 194.217 53.189,193.898 53.339,193.868 53.917 C 193.716 56.810,194.008 56.553,190.648 56.761 C 187.117 56.980,186.990 56.919,187.372 55.185 C 187.552 54.369,187.486 53.409,187.194 52.593 C 186.939 51.880,186.629 50.838,186.506 50.278 C 186.253 49.126,185.556 48.892,185.556 49.958 C 185.556 50.343,185.007 51.468,184.337 52.458 C 182.947 54.513,182.754 57.598,183.969 58.333 C 184.306 58.537,184.968 59.103,185.439 59.591 C 186.004 60.176,186.300 60.302,186.308 59.961 C 186.343 58.425,187.290 57.998,189.254 58.632 C 190.279 58.963,191.366 59.138,191.669 59.022 C 192.000 58.895,192.652 59.271,193.296 59.960 C 193.888 60.593,194.688 61.111,195.075 61.111 C 195.461 61.111,195.962 61.296,196.188 61.521 C 196.413 61.747,197.122 62.039,197.762 62.170 C 199.267 62.477,199.249 63.097,197.729 63.333 C 196.196 63.572,195.935 64.349,197.289 64.646 C 200.415 65.331,200.935 65.856,201.265 68.657 C 201.379 69.631,201.578 70.597,201.706 70.805 C 201.834 71.012,201.728 71.577,201.469 72.060 C 201.141 72.673,201.115 73.081,201.383 73.413 C 201.594 73.675,201.882 74.432,202.024 75.096 C 202.188 75.859,202.437 76.208,202.701 76.044 C 203.157 75.762,205.142 75.812,206.759 76.145 C 207.526 76.303,207.778 76.573,207.778 77.235 C 207.778 78.160,210.551 78.268,215.926 77.552 C 217.765 77.307,218.345 77.294,219.444 77.472 C 220.071 77.574,220.202 77.357,220.297 76.069 C 220.385 74.860,220.599 74.459,221.336 74.123 C 222.321 73.675,222.229 72.973,221.182 72.948 C 220.833 72.940,221.065 72.712,221.705 72.433 C 222.338 72.158,222.947 71.581,223.060 71.152 C 223.294 70.254,224.000 70.116,224.304 70.908 C 224.463 71.323,224.705 71.219,225.361 70.457 C 226.585 69.034,226.116 67.985,224.216 67.894 C 220.824 67.732,219.025 66.669,221.625 66.362 C 222.831 66.220,222.724 65.479,221.454 65.179 C 220.182 64.878,220.153 62.630,221.412 62.002 C 221.883 61.767,222.246 61.433,222.218 61.260 C 222.190 61.086,222.372 60.876,222.624 60.792 C 222.906 60.698,222.998 60.856,222.865 61.203 C 222.478 62.211,224.479 63.764,225.343 63.127 C 225.735 62.838,226.882 62.491,227.892 62.357 C 229.273 62.174,229.774 61.937,229.914 61.399 C 230.353 59.721,234.965 59.373,235.573 60.972 C 236.038 62.194,238.500 61.977,240.000 60.582 C 241.288 59.383,242.356 58.889,243.657 58.889 C 244.270 58.889,244.874 58.722,245.000 58.519 C 245.126 58.315,245.609 58.148,246.074 58.148 C 246.615 58.148,247.070 57.816,247.340 57.222 C 247.572 56.713,248.044 56.296,248.389 56.296 C 249.254 56.296,250.370 55.215,250.370 54.375 C 250.370 53.993,250.662 53.590,251.019 53.480 C 251.375 53.370,251.962 53.121,252.323 52.928 C 252.684 52.734,253.767 52.474,254.730 52.348 C 256.720 52.089,257.532 51.601,257.240 50.840 C 256.965 50.122,257.679 48.889,258.371 48.889 C 258.683 48.889,259.510 48.453,260.209 47.920 C 260.908 47.387,262.006 46.924,262.650 46.892 C 263.353 46.856,263.982 46.557,264.225 46.143 C 265.213 44.459,266.124 43.774,267.122 43.964 C 267.953 44.123,268.153 43.998,268.355 43.195 C 268.707 41.791,271.802 40.981,273.282 41.906 C 274.539 42.691,275.833 42.019,276.099 40.443 C 276.360 38.898,279.273 37.766,281.531 38.332 C 282.184 38.496,282.684 38.374,283.113 37.946 C 283.804 37.255,283.797 37.252,284.394 38.402 C 284.908 39.389,284.940 40.838,284.460 41.318 C 283.896 41.881,284.500 42.387,286.287 42.847 C 288.400 43.392,288.385 43.406,288.681 40.641 C 289.021 37.466,289.154 37.320,291.780 37.267 C 295.604 37.190,295.462 36.290,291.573 35.955 L 289.074 35.741 289.251 34.259 C 289.349 33.444,289.428 32.069,289.427 31.204 C 289.425 29.622,289.543 29.499,290.949 29.606 C 291.369 29.638,292.181 29.486,292.753 29.269 C 293.493 28.987,293.932 28.988,294.274 29.271 C 295.042 29.909,298.333 28.815,298.333 27.922 C 298.333 26.815,298.872 26.191,299.428 26.653 C 299.771 26.938,300.031 26.890,300.370 26.481 C 300.730 26.048,300.958 26.016,301.352 26.343 C 301.748 26.671,302.025 26.625,302.560 26.140 C 303.916 24.914,311.075 25.466,313.206 26.962 C 314.949 28.185,316.486 28.283,316.978 27.203 C 317.676 25.671,318.687 26.072,319.831 28.333 C 320.638 29.927,321.050 30.370,321.727 30.370 C 322.409 30.370,322.593 30.572,322.593 31.321 C 322.593 32.767,323.250 33.704,324.265 33.704 C 324.933 33.704,325.222 33.947,325.363 34.630 C 325.469 35.139,325.635 35.944,325.732 36.420 C 325.830 36.895,325.586 37.918,325.191 38.693 C 324.689 39.677,324.576 40.294,324.816 40.742 C 325.004 41.095,325.179 42.864,325.204 44.673 C 325.318 52.971,325.443 55.102,325.896 56.520 C 326.273 57.702,326.289 58.468,325.967 59.968 C 325.669 61.359,325.666 62.106,325.955 62.648 C 326.478 63.625,326.521 70.577,326.014 72.234 C 325.798 72.941,325.519 75.425,325.393 77.755 C 325.149 82.269,325.125 82.146,327.813 90.535 C 328.844 93.753,328.718 94.683,326.672 98.938 C 325.656 101.050,324.823 103.200,324.820 103.715 C 324.816 104.369,324.134 105.322,322.564 106.863 C 319.254 110.115,319.129 110.455,319.437 115.380 C 319.736 120.161,319.891 120.491,323.261 123.542 C 324.523 124.683,325.556 125.864,325.556 126.164 C 325.556 126.465,325.688 126.629,325.849 126.529 C 326.011 126.429,326.183 126.871,326.231 127.511 C 326.280 128.151,326.440 128.764,326.586 128.874 C 327.015 129.196,326.857 133.446,326.385 134.303 C 326.147 134.735,326.071 135.220,326.217 135.381 C 326.362 135.542,326.245 135.537,325.956 135.369 C 325.560 135.140,325.490 135.222,325.674 135.699 C 325.808 136.049,325.767 136.242,325.583 136.128 C 325.399 136.014,325.109 136.298,324.939 136.758 C 323.571 140.458,322.168 142.168,319.263 143.679 C 313.720 146.563,314.013 151.181,320.105 156.955 C 321.728 158.493,322.963 160.486,322.963 161.567 C 322.963 161.859,323.347 162.303,323.817 162.554 C 324.286 162.805,325.212 163.996,325.873 165.199 C 326.535 166.403,327.234 167.486,327.427 167.605 C 328.206 168.086,327.779 169.610,326.709 170.163 C 325.722 170.674,325.573 170.658,324.765 169.956 C 323.887 169.194,321.599 169.191,320.574 169.950 C 320.360 170.109,318.852 170.797,317.222 171.481 C 311.243 173.987,311.290 175.512,317.407 177.515 C 321.884 178.981,323.860 179.352,325.240 178.985 C 327.005 178.515,330.000 179.403,330.000 180.397 C 330.000 180.795,330.187 181.421,330.416 181.787 C 330.737 182.301,330.694 182.720,330.231 183.616 C 329.090 185.822,329.548 186.925,332.321 188.648 C 333.352 189.289,333.597 191.637,332.772 192.972 C 332.624 193.212,332.398 194.263,332.270 195.308 C 332.054 197.072,331.924 197.270,330.463 198.076 C 328.539 199.137,328.498 199.754,330.235 201.533 L 331.582 202.912 330.224 204.762 C 329.477 205.780,328.662 206.700,328.414 206.806 C 328.115 206.934,328.251 207.224,328.819 207.666 C 331.630 209.857,331.540 209.721,330.930 210.876 C 330.210 212.241,330.221 212.420,331.142 214.323 C 332.053 216.205,332.138 218.713,331.349 220.435 C 331.038 221.112,330.732 222.071,330.670 222.565 C 330.591 223.187,330.074 223.717,328.988 224.290 C 328.126 224.744,326.856 225.465,326.167 225.892 C 324.628 226.842,324.410 226.846,322.564 225.954 C 318.205 223.848,311.683 225.206,306.852 229.225 C 304.520 231.164,303.875 231.321,301.301 230.573 C 299.233 229.972,299.207 229.974,297.665 230.893 C 296.810 231.403,295.241 232.276,294.177 232.834 L 292.242 233.848 290.288 233.066 C 289.213 232.637,287.578 232.183,286.655 232.058 C 283.763 231.667,282.883 230.839,280.520 226.291 C 278.106 221.646,275.281 218.408,273.295 218.011 C 269.943 217.340,267.040 218.217,264.325 220.719 C 262.245 222.637,260.073 223.574,256.956 223.899 C 252.066 224.408,250.177 222.211,246.916 212.222 C 245.819 208.861,244.255 204.694,243.439 202.963 C 242.624 201.231,241.455 198.717,240.841 197.376 L 239.726 194.937 235.696 196.896 C 231.717 198.831,205.653 207.418,196.292 209.879 L 192.407 210.900 158.108 211.020 L 123.810 211.140 123.369 212.106 C 122.062 214.975,121.867 217.411,122.106 227.852 C 122.235 233.494,122.464 238.310,122.615 238.554 C 122.835 238.911,346.850 243.951,367.315 244.060 L 370.000 244.074 370.000 264.340 L 370.000 284.606 365.833 295.629 L 361.667 306.652 360.453 306.659 C 359.134 306.667,276.396 303.096,271.852 302.836 L 269.074 302.676 270.556 303.372 C 272.700 304.378,278.350 306.095,283.889 307.422 C 286.537 308.056,290.954 309.340,293.704 310.275 L 298.704 311.975 304.444 312.011 C 312.039 312.059,313.551 312.695,318.841 318.071 L 322.407 321.695 327.963 323.453 C 335.896 325.963,339.344 327.754,344.318 331.951 C 348.214 335.237,350.000 337.168,350.000 338.090 C 350.000 339.018,353.832 342.217,355.477 342.662 C 356.233 342.867,357.185 343.338,357.593 343.709 C 358.000 344.080,359.500 344.752,360.926 345.203 C 363.060 345.876,363.838 346.357,365.322 347.918 C 366.314 348.961,367.498 350.065,367.952 350.370 C 369.797 351.612,372.272 355.170,372.151 356.409 C 372.019 357.776,369.124 358.704,367.722 357.829 C 367.351 357.597,366.721 357.407,366.323 357.407 C 365.925 357.407,365.496 357.241,365.370 357.037 C 365.244 356.833,364.871 356.667,364.540 356.667 C 364.208 356.667,363.260 356.339,362.432 355.938 C 361.229 355.356,359.993 355.188,356.296 355.104 L 351.667 355.000 351.111 356.757 C 350.806 357.724,350.375 358.516,350.154 358.517 C 349.579 358.519,347.946 360.441,347.086 362.127 C 345.399 365.433,336.495 367.353,329.417 365.937 C 323.761 364.806,316.754 362.218,314.815 360.544 C 312.184 358.273,302.977 354.753,297.236 353.824 C 291.470 352.892,290.575 352.857,287.903 353.465 C 279.301 355.421,273.437 355.043,269.767 352.294 C 268.433 351.295,266.006 349.766,264.373 348.896 C 262.730 348.021,260.141 346.167,258.573 344.744 C 255.838 342.261,255.686 342.179,254.139 342.341 C 252.641 342.497,248.574 344.802,248.188 345.714 C 247.176 348.105,243.845 350.065,239.715 350.698 C 233.885 351.592,232.958 351.151,232.547 347.282 C 231.701 339.323,230.582 337.200,225.159 333.272 C 224.343 332.681,223.533 331.821,223.358 331.361 C 223.183 330.901,222.773 330.303,222.446 330.032 C 222.119 329.761,221.852 329.007,221.852 328.357 C 221.852 326.863,220.536 325.566,217.778 324.338 C 216.420 323.734,214.958 322.614,213.395 320.982 C 211.290 318.783,210.777 318.451,208.395 317.747 C 205.240 316.815,204.306 316.136,204.831 315.155 C 205.113 314.628,204.927 314.100,203.996 312.779 C 203.146 311.573,202.826 310.736,202.892 309.892 C 202.969 308.905,202.779 308.572,201.769 307.927 C 200.655 307.215,198.519 303.008,198.519 301.527 C 198.519 301.298,198.394 301.101,198.241 301.089 C 198.088 301.077,197.296 300.987,196.481 300.888 C 194.139 300.605,190.721 300.728,188.672 301.168 C 186.188 301.701,176.047 299.983,175.388 298.917 C 175.133 298.505,165.919 298.048,163.918 298.348 C 162.908 298.500,161.282 299.231,159.743 300.224 C 158.357 301.119,157.003 301.769,156.736 301.669 C 156.116 301.437,154.174 302.411,152.919 303.583 C 151.918 304.519,151.118 304.270,150.649 302.877 C 150.527 302.514,150.339 302.533,149.821 302.960 C 149.219 303.457,149.110 303.441,148.742 302.797 C 148.517 302.403,147.957 301.687,147.498 301.206 C 147.038 300.726,146.328 299.677,145.919 298.876 C 145.020 297.113,145.139 297.141,137.336 296.858 L 131.153 296.634 131.451 297.669 C 131.615 298.238,132.290 299.505,132.952 300.484 L 134.155 302.264 133.034 304.558 C 132.417 305.820,131.800 307.685,131.663 308.704 C 131.012 313.541,130.576 314.074,127.275 314.074 C 123.926 314.074,122.481 312.228,120.947 305.989 C 120.276 303.260,120.242 302.502,120.723 300.952 C 120.918 300.327,121.306 299.040,121.586 298.094 L 122.095 296.373 119.103 296.157 C 117.458 296.038,113.361 295.849,110.000 295.736 C 106.639 295.623,103.150 295.439,102.248 295.326 L 100.607 295.120 102.539 297.234 C 105.133 300.073,105.453 300.796,105.908 304.852 C 106.122 306.767,106.400 309.101,106.525 310.040 C 106.940 313.169,104.517 316.156,100.412 317.576 C 99.518 317.885,98.224 318.567,97.536 319.092 C 96.847 319.618,95.553 320.370,94.660 320.765 L 93.036 321.484 89.635 320.372 C 87.084 319.538,85.866 319.319,84.764 319.496 C 81.328 320.045,78.889 314.315,78.889 305.693 C 78.889 303.422,80.949 296.916,82.102 295.546 L 83.029 294.444 82.163 294.451 C 80.700 294.462,45.006 292.874,44.909 292.794 C 44.575 292.519,42.406 224.056,42.649 221.445 C 45.158 194.448,64.200 172.671,88.889 168.564 C 99.993 166.717,132.012 164.423,151.832 164.055 C 162.924 163.849,172.065 163.614,172.147 163.532 C 172.827 162.852,162.959 151.729,160.556 150.466 C 159.944 150.145,158.553 149.832,157.464 149.771 C 156.374 149.710,155.273 149.486,155.017 149.274 C 154.761 149.061,153.764 148.469,152.801 147.957 C 151.839 147.445,150.523 146.466,149.877 145.782 C 148.948 144.798,148.297 144.483,146.749 144.270 C 145.364 144.080,144.635 143.770,144.247 143.205 C 140.236 137.370,139.449 135.844,139.960 134.890 C 140.376 134.113,140.292 129.847,139.811 127.315 L 139.547 125.926 137.088 125.921 C 135.736 125.918,126.796 126.100,117.222 126.324 C 100.600 126.712,58.299 125.830,57.547 125.078 C 57.379 124.910,56.831 111.988,55.849 84.978 L 55.741 81.993 99.866 80.179 C 135.972 78.695,143.957 78.275,143.802 77.870 C 143.580 77.293,141.038 75.926,140.185 75.926 C 139.294 75.926,137.480 74.443,136.649 73.035 C 135.733 71.482,134.650 71.616,132.515 73.545 C 130.073 75.751,127.407 73.998,127.407 70.187 C 127.407 69.454,126.991 68.072,126.481 67.116 C 125.972 66.159,125.556 65.010,125.556 64.562 C 125.556 64.114,125.389 63.644,125.185 63.519 C 124.547 63.124,124.781 61.257,125.556 60.556 C 125.963 60.187,126.296 59.729,126.296 59.539 C 126.296 59.349,127.038 58.472,127.945 57.591 C 129.862 55.727,130.966 53.495,130.341 52.743 C 130.118 52.474,130.058 52.058,130.206 51.818 C 130.355 51.577,130.510 51.112,130.551 50.783 C 130.745 49.237,131.238 47.778,131.567 47.778 C 131.767 47.778,131.827 48.049,131.700 48.380 C 131.573 48.712,131.615 49.170,131.794 49.399 C 132.299 50.045,132.572 52.465,132.183 52.854 C 131.642 53.395,132.857 55.904,133.842 56.278 C 134.817 56.649,135.586 58.229,135.636 59.961 C 135.654 60.608,135.784 61.208,135.924 61.295 C 136.414 61.598,140.583 62.272,144.074 62.613 C 147.346 62.933,147.658 63.035,148.519 64.074 C 149.028 64.689,149.723 65.190,150.064 65.189 C 150.874 65.184,152.963 66.950,152.963 67.639 C 152.963 67.933,153.219 68.566,153.533 69.044 C 153.846 69.522,154.070 70.058,154.029 70.235 C 153.989 70.411,154.312 71.306,154.747 72.222 C 155.183 73.139,155.543 74.181,155.547 74.537 C 155.552 74.894,155.834 75.185,156.175 75.185 C 156.515 75.185,157.117 75.477,157.513 75.833 C 159.251 77.399,166.609 76.113,166.160 74.322 C 165.884 73.221,166.243 72.778,167.830 72.260 C 169.885 71.591,170.153 69.581,168.282 68.870 C 167.520 68.580,167.439 68.410,167.771 67.790 C 168.092 67.191,168.022 66.966,167.395 66.583 C 166.971 66.323,166.353 65.544,166.021 64.850 C 165.689 64.157,164.938 63.324,164.353 62.999 C 163.750 62.664,162.715 61.391,161.966 60.062 C 160.920 58.209,160.495 57.756,159.935 57.902 C 159.545 58.004,158.776 57.852,158.224 57.564 C 157.673 57.277,157.033 57.041,156.802 57.039 C 155.769 57.034,155.185 55.289,155.557 53.324 C 155.919 51.419,155.596 50.000,154.802 50.000 C 154.605 50.000,154.444 49.667,154.444 49.259 C 154.444 48.848,154.691 48.519,155.000 48.519 C 155.930 48.519,155.622 47.965,154.444 47.521 C 153.283 47.083,153.119 46.539,153.310 43.779 C 153.357 43.107,153.190 42.310,152.938 42.007 C 152.575 41.569,152.579 41.274,152.956 40.568 C 153.234 40.049,153.312 39.400,153.143 39.006 C 152.721 38.023,152.593 34.118,152.975 33.882 C 153.154 33.771,153.198 33.411,153.072 33.083 C 152.794 32.358,153.874 31.481,155.044 31.481 C 155.500 31.481,156.101 31.253,156.381 30.974 C 156.660 30.695,157.463 30.169,158.166 29.805 C 159.443 29.145,161.284 27.922,162.054 27.222 C 162.434 26.877,166.454 26.795,168.497 27.091 C 169.591 27.250,170.092 25.857,170.149 22.500 C 170.184 20.449,170.234 20.345,171.481 19.722 C 173.238 18.844,173.436 17.570,171.870 17.226 C 170.352 16.893,170.727 16.438,172.773 16.131 C 174.065 15.937,174.444 15.724,174.444 15.193 C 174.444 13.959,174.878 13.333,175.735 13.333 C 176.722 13.333,177.252 12.784,177.599 11.402 C 177.987 9.858,178.679 9.453,179.996 9.998 C 180.877 10.363,181.061 10.625,180.898 11.275 C 180.613 12.411,181.445 13.009,182.800 12.641 C 183.764 12.380,183.878 12.201,183.791 11.080 C 183.663 9.408,184.178 8.577,184.947 9.215 C 185.406 9.596,185.643 9.542,186.272 8.914 C 187.291 7.894,192.320 7.787,193.397 8.761 M272.033 13.191 C 272.774 14.754,272.328 15.556,270.717 15.556 C 269.391 15.556,269.107 15.076,269.214 13.009 C 269.354 10.313,270.708 10.401,272.033 13.191 M299.516 28.015 C 299.220 28.311,299.555 28.889,300.022 28.889 C 300.214 28.889,300.370 28.639,300.370 28.333 C 300.370 27.761,299.933 27.598,299.516 28.015 M290.614 31.184 C 290.328 32.280,290.916 32.898,292.039 32.683 C 292.702 32.556,292.963 32.268,292.963 31.663 C 292.963 30.256,290.964 29.848,290.614 31.184 M317.817 197.916 C 317.486 198.315,317.594 198.555,318.314 199.027 C 319.498 199.803,320.229 199.791,320.536 198.991 C 321.005 197.770,318.695 196.857,317.817 197.916 M315.057 206.603 C 313.618 208.194,315.257 209.468,318.231 209.069 C 320.188 208.806,322.593 208.000,322.593 207.606 C 322.593 206.134,316.246 205.290,315.057 206.603 M37.065 219.281 C 39.290 223.735,38.684 226.048,35.176 226.492 C 33.584 226.693,31.613 224.964,31.254 223.053 C 30.992 221.658,33.493 218.587,34.557 218.995 C 34.838 219.103,35.302 219.042,35.589 218.861 C 36.237 218.451,36.719 218.588,37.065 219.281 M54.798 296.337 C 55.823 297.459,55.908 297.482,58.126 297.225 C 64.933 296.435,68.635 311.375,63.932 320.655 C 62.246 323.983,62.065 324.094,58.836 323.773 C 54.931 323.384,52.249 320.947,48.904 314.746 C 48.087 313.231,47.002 311.600,46.493 311.122 L 45.567 310.252 45.014 311.576 C 44.710 312.304,44.106 314.539,43.672 316.542 C 41.856 324.926,37.028 331.852,32.999 331.852 L 31.104 331.852 29.811 329.091 C 29.100 327.573,28.519 326.108,28.519 325.836 C 28.519 325.564,27.996 323.681,27.358 321.652 C 24.932 313.942,27.017 306.113,32.150 303.660 C 33.107 303.203,34.008 302.651,34.153 302.433 C 34.299 302.215,34.549 302.028,34.709 302.016 C 36.005 301.923,37.514 301.268,38.540 300.351 C 40.314 298.767,42.197 299.691,43.898 302.981 C 44.651 304.436,44.920 304.212,46.132 301.124 C 48.073 296.177,52.445 293.762,54.798 296.337 M98.148 295.926 C 98.366 296.333,98.700 296.667,98.889 296.667 C 99.078 296.667,99.412 296.333,99.630 295.926 C 99.986 295.260,99.911 295.185,98.889 295.185 C 97.866 295.185,97.792 295.260,98.148 295.926 M384.300 296.950 C 387.773 299.248,384.497 316.043,380.324 317.337 C 371.434 320.092,367.947 317.897,368.025 309.595 C 368.105 300.985,369.933 298.994,377.171 299.628 C 378.420 299.737,378.747 299.586,379.763 298.429 C 380.403 297.700,381.176 297.019,381.481 296.915 C 382.327 296.626,383.839 296.645,384.300 296.950 M8.211 306.168 C 8.583 306.504,9.762 307.076,10.831 307.438 C 13.025 308.181,13.478 309.127,13.075 312.126 C 12.816 314.047,12.694 314.148,9.369 315.186 C 5.501 316.393,4.076 315.123,4.606 310.941 C 5.206 306.210,6.444 304.569,8.211 306.168 M222.793 332.130 L 223.448 333.148 222.650 332.443 C 222.211 332.055,221.852 331.596,221.852 331.424 C 221.852 330.881,222.117 331.079,222.793 332.130 " stroke="none" fill="#161616" fill-rule="evenodd"></path><path id="path2" d="M266.667 0.913 C 266.667 1.445,266.359 1.990,265.930 2.220 C 264.876 2.784,264.648 4.159,265.376 5.566 C 265.883 6.547,265.915 6.921,265.550 7.602 C 264.448 9.661,267.127 10.589,272.157 9.889 C 276.390 9.300,276.991 9.942,275.281 13.227 C 274.539 14.651,275.751 16.519,277.131 16.081 C 277.516 15.959,278.111 16.103,278.452 16.401 C 280.178 17.906,285.889 16.954,285.284 15.262 C 285.190 14.999,285.216 14.374,285.341 13.873 C 285.740 12.286,287.778 12.932,287.778 14.646 C 287.778 16.270,289.862 17.222,291.082 16.155 C 293.149 14.348,296.442 15.206,296.472 17.560 C 296.477 17.949,296.690 18.338,296.944 18.424 C 297.213 18.515,297.407 18.268,297.407 17.839 C 297.407 16.231,299.134 14.921,299.317 16.389 C 299.492 17.787,299.623 19.159,299.642 19.798 C 299.689 21.317,302.117 22.180,303.226 21.071 C 303.452 20.845,305.326 20.596,307.390 20.519 C 312.097 20.343,314.282 19.182,312.943 17.569 C 312.359 16.865,313.103 15.926,314.245 15.926 C 314.750 15.926,315.221 15.587,315.467 15.046 C 315.726 14.477,316.303 14.083,317.101 13.930 C 317.779 13.799,318.667 13.611,319.074 13.510 C 319.481 13.410,320.852 13.140,322.119 12.911 C 323.859 12.596,324.565 12.279,324.998 11.617 C 325.314 11.135,325.882 10.741,326.259 10.741 C 326.637 10.741,327.154 10.491,327.407 10.185 C 327.661 9.880,328.246 9.630,328.707 9.630 C 329.565 9.630,330.394 6.862,329.815 5.927 C 329.689 5.723,329.751 5.556,329.952 5.556 C 330.810 5.556,332.963 3.038,332.963 2.034 C 332.963 1.470,333.255 0.786,333.611 0.516 C 334.152 0.105,328.644 0.022,300.463 0.012 L 266.667 0.000 266.667 0.913 M262.463 3.877 C 262.202 4.558,262.896 5.030,263.407 4.519 C 263.803 4.123,263.518 3.333,262.981 3.333 C 262.811 3.333,262.578 3.578,262.463 3.877 M200.248 4.691 C 200.111 4.827,200.000 5.216,200.000 5.555 C 200.000 5.893,199.604 6.952,199.121 7.907 C 198.637 8.862,198.387 9.734,198.565 9.844 C 198.743 9.954,198.889 10.795,198.889 11.713 C 198.889 13.617,199.400 14.815,200.213 14.815 C 200.956 14.815,202.963 13.310,202.963 12.753 C 202.963 12.511,203.220 12.100,203.534 11.839 C 203.926 11.514,203.986 11.245,203.724 10.984 C 203.463 10.723,203.517 10.411,203.896 9.992 C 204.393 9.443,204.318 9.263,203.150 8.200 C 202.436 7.551,201.852 6.716,201.852 6.345 C 201.852 5.579,200.625 4.314,200.248 4.691 M186.272 8.914 C 185.643 9.542,185.406 9.596,184.947 9.215 C 184.178 8.577,183.663 9.408,183.791 11.080 C 183.878 12.201,183.764 12.380,182.800 12.641 C 181.445 13.009,180.613 12.411,180.898 11.275 C 181.061 10.625,180.877 10.363,179.996 9.998 C 178.679 9.453,177.987 9.858,177.599 11.402 C 177.252 12.784,176.722 13.333,175.735 13.333 C 174.878 13.333,174.444 13.959,174.444 15.193 C 174.444 15.724,174.065 15.937,172.773 16.131 C 170.727 16.438,170.352 16.893,171.870 17.226 C 173.436 17.570,173.238 18.844,171.481 19.722 C 170.234 20.345,170.184 20.449,170.149 22.500 C 170.092 25.857,169.591 27.250,168.497 27.091 C 166.454 26.795,162.434 26.877,162.054 27.222 C 161.284 27.922,159.443 29.145,158.166 29.805 C 157.463 30.169,156.660 30.695,156.381 30.974 C 156.101 31.253,155.500 31.481,155.044 31.481 C 153.874 31.481,152.794 32.358,153.072 33.083 C 153.198 33.411,153.154 33.771,152.975 33.882 C 152.593 34.118,152.721 38.023,153.143 39.006 C 153.312 39.400,153.234 40.049,152.956 40.568 C 152.579 41.274,152.575 41.569,152.938 42.007 C 153.190 42.310,153.357 43.107,153.310 43.779 C 153.119 46.539,153.283 47.083,154.444 47.521 C 155.622 47.965,155.930 48.519,155.000 48.519 C 154.691 48.519,154.444 48.848,154.444 49.259 C 154.444 49.667,154.605 50.000,154.802 50.000 C 155.596 50.000,155.919 51.419,155.557 53.324 C 155.185 55.289,155.769 57.034,156.802 57.039 C 157.033 57.041,157.673 57.277,158.224 57.564 C 158.776 57.852,159.545 58.004,159.935 57.902 C 160.495 57.756,160.920 58.209,161.966 60.062 C 162.715 61.391,163.750 62.664,164.353 62.999 C 164.938 63.324,165.689 64.157,166.021 64.850 C 166.353 65.544,166.971 66.323,167.395 66.583 C 168.022 66.966,168.092 67.191,167.771 67.790 C 167.439 68.410,167.520 68.580,168.282 68.870 C 170.153 69.581,169.885 71.591,167.830 72.260 C 166.243 72.778,165.884 73.221,166.160 74.322 C 166.609 76.113,159.251 77.399,157.513 75.833 C 157.117 75.477,156.515 75.185,156.175 75.185 C 155.834 75.185,155.552 74.894,155.547 74.537 C 155.543 74.181,155.183 73.139,154.747 72.222 C 154.312 71.306,153.989 70.411,154.029 70.235 C 154.070 70.058,153.846 69.522,153.533 69.044 C 153.219 68.566,152.963 67.933,152.963 67.639 C 152.963 66.950,150.874 65.184,150.064 65.189 C 149.723 65.190,149.028 64.689,148.519 64.074 C 147.658 63.035,147.346 62.933,144.074 62.613 C 140.583 62.272,136.414 61.598,135.924 61.295 C 135.784 61.208,135.654 60.608,135.636 59.961 C 135.586 58.229,134.817 56.649,133.842 56.278 C 132.857 55.904,131.642 53.395,132.183 52.854 C 132.572 52.465,132.299 50.045,131.794 49.399 C 131.615 49.170,131.573 48.712,131.700 48.380 C 131.827 48.049,131.767 47.778,131.567 47.778 C 131.238 47.778,130.745 49.237,130.551 50.783 C 130.510 51.112,130.355 51.577,130.206 51.818 C 130.058 52.058,130.118 52.474,130.341 52.743 C 130.966 53.495,129.862 55.727,127.945 57.591 C 127.038 58.472,126.296 59.349,126.296 59.539 C 126.296 59.729,125.963 60.187,125.556 60.556 C 124.781 61.257,124.547 63.124,125.185 63.519 C 125.389 63.644,125.556 64.114,125.556 64.562 C 125.556 65.010,125.972 66.159,126.481 67.116 C 126.991 68.072,127.407 69.454,127.407 70.187 C 127.407 73.998,130.073 75.751,132.515 73.545 C 134.650 71.616,135.733 71.482,136.649 73.035 C 137.480 74.443,139.294 75.926,140.185 75.926 C 141.029 75.926,143.579 77.290,143.797 77.858 C 143.948 78.251,147.559 78.185,163.380 77.498 C 189.569 76.360,187.301 76.146,210.000 81.898 C 227.864 86.425,230.550 87.251,235.785 89.832 C 275.897 109.605,279.497 168.011,242.155 193.171 L 239.680 194.838 240.818 197.327 C 241.444 198.695,242.624 201.231,243.439 202.963 C 244.255 204.694,245.819 208.861,246.916 212.222 C 250.177 222.211,252.066 224.408,256.956 223.899 C 260.073 223.574,262.245 222.637,264.325 220.719 C 267.040 218.217,269.943 217.340,273.295 218.011 C 275.281 218.408,278.106 221.646,280.520 226.291 C 282.883 230.839,283.763 231.667,286.655 232.058 C 287.578 232.183,289.213 232.637,290.288 233.066 L 292.242 233.848 294.177 232.834 C 295.241 232.276,296.810 231.403,297.665 230.893 C 299.207 229.974,299.233 229.972,301.301 230.573 C 303.875 231.321,304.520 231.164,306.852 229.225 C 311.683 225.206,318.205 223.848,322.564 225.954 C 324.410 226.846,324.628 226.842,326.167 225.892 C 326.856 225.465,328.126 224.744,328.988 224.290 C 330.074 223.717,330.591 223.187,330.670 222.565 C 330.732 222.071,331.038 221.112,331.349 220.435 C 332.138 218.713,332.053 216.205,331.142 214.323 C 330.221 212.420,330.210 212.241,330.930 210.876 C 331.540 209.721,331.630 209.857,328.819 207.666 C 328.251 207.224,328.115 206.934,328.414 206.806 C 328.662 206.700,329.477 205.780,330.224 204.762 L 331.582 202.912 330.235 201.533 C 328.498 199.754,328.539 199.137,330.463 198.076 C 331.924 197.270,332.054 197.072,332.270 195.308 C 332.398 194.263,332.624 193.212,332.772 192.972 C 333.597 191.637,333.352 189.289,332.321 188.648 C 329.548 186.925,329.090 185.822,330.231 183.616 C 330.694 182.720,330.737 182.301,330.416 181.787 C 330.187 181.421,330.000 180.795,330.000 180.397 C 330.000 179.403,327.005 178.515,325.240 178.985 C 323.860 179.352,321.884 178.981,317.407 177.515 C 311.290 175.512,311.243 173.987,317.222 171.481 C 318.852 170.797,320.360 170.109,320.574 169.950 C 321.599 169.191,323.887 169.194,324.765 169.956 C 325.573 170.658,325.722 170.674,326.709 170.163 C 327.779 169.610,328.206 168.086,327.427 167.605 C 327.234 167.486,326.535 166.403,325.873 165.199 C 325.212 163.996,324.286 162.805,323.817 162.554 C 323.347 162.303,322.963 161.859,322.963 161.567 C 322.963 160.486,321.728 158.493,320.105 156.955 C 314.013 151.181,313.720 146.563,319.263 143.679 C 322.168 142.168,323.571 140.458,324.939 136.758 C 325.109 136.298,325.399 136.014,325.583 136.128 C 325.767 136.242,325.808 136.049,325.674 135.699 C 325.490 135.222,325.560 135.140,325.956 135.369 C 326.245 135.537,326.362 135.542,326.217 135.381 C 326.071 135.220,326.147 134.735,326.385 134.303 C 326.857 133.446,327.015 129.196,326.586 128.874 C 326.440 128.764,326.280 128.151,326.231 127.511 C 326.183 126.871,326.011 126.429,325.849 126.529 C 325.688 126.629,325.556 126.465,325.556 126.164 C 325.556 125.864,324.523 124.683,323.261 123.542 C 319.891 120.491,319.736 120.161,319.437 115.380 C 319.129 110.455,319.254 110.115,322.564 106.863 C 324.134 105.322,324.816 104.369,324.820 103.715 C 324.823 103.200,325.656 101.050,326.672 98.938 C 328.718 94.683,328.844 93.753,327.813 90.535 C 325.125 82.146,325.149 82.269,325.393 77.755 C 325.519 75.425,325.798 72.941,326.014 72.234 C 326.521 70.577,326.478 63.625,325.955 62.648 C 325.666 62.106,325.669 61.359,325.967 59.968 C 326.289 58.468,326.273 57.702,325.896 56.520 C 325.443 55.102,325.318 52.971,325.204 44.673 C 325.179 42.864,325.004 41.095,324.816 40.742 C 324.576 40.294,324.689 39.677,325.191 38.693 C 325.586 37.918,325.830 36.895,325.732 36.420 C 325.635 35.944,325.469 35.139,325.363 34.630 C 325.222 33.947,324.933 33.704,324.265 33.704 C 323.250 33.704,322.593 32.767,322.593 31.321 C 322.593 30.572,322.409 30.370,321.727 30.370 C 321.050 30.370,320.638 29.927,319.831 28.333 C 318.687 26.072,317.676 25.671,316.978 27.203 C 316.486 28.283,314.949 28.185,313.206 26.962 C 311.075 25.466,303.916 24.914,302.560 26.140 C 302.025 26.625,301.748 26.671,301.352 26.343 C 300.958 26.016,300.730 26.048,300.370 26.481 C 300.031 26.890,299.771 26.938,299.428 26.653 C 298.872 26.191,298.333 26.815,298.333 27.922 C 298.333 28.815,295.042 29.909,294.274 29.271 C 293.932 28.988,293.493 28.987,292.753 29.269 C 292.181 29.486,291.369 29.638,290.949 29.606 C 289.543 29.499,289.425 29.622,289.427 31.204 C 289.428 32.069,289.349 33.444,289.251 34.259 L 289.074 35.741 291.573 35.955 C 295.462 36.290,295.604 37.190,291.780 37.267 C 289.154 37.320,289.021 37.466,288.681 40.641 C 288.385 43.406,288.400 43.392,286.287 42.847 C 284.500 42.387,283.896 41.881,284.460 41.318 C 284.940 40.838,284.908 39.389,284.394 38.402 C 283.797 37.252,283.804 37.255,283.113 37.946 C 282.684 38.374,282.184 38.496,281.531 38.332 C 279.273 37.766,276.360 38.898,276.099 40.443 C 275.833 42.019,274.539 42.691,273.282 41.906 C 271.802 40.981,268.707 41.791,268.355 43.195 C 268.153 43.998,267.953 44.123,267.122 43.964 C 266.124 43.774,265.213 44.459,264.225 46.143 C 263.982 46.557,263.353 46.856,262.650 46.892 C 262.006 46.924,260.908 47.387,260.209 47.920 C 259.510 48.453,258.683 48.889,258.371 48.889 C 257.679 48.889,256.965 50.122,257.240 50.840 C 257.532 51.601,256.720 52.089,254.730 52.348 C 253.767 52.474,252.684 52.734,252.323 52.928 C 251.962 53.121,251.375 53.370,251.019 53.480 C 250.662 53.590,250.370 53.993,250.370 54.375 C 250.370 55.215,249.254 56.296,248.389 56.296 C 248.044 56.296,247.572 56.713,247.340 57.222 C 247.070 57.816,246.615 58.148,246.074 58.148 C 245.609 58.148,245.126 58.315,245.000 58.519 C 244.874 58.722,244.270 58.889,243.657 58.889 C 242.356 58.889,241.288 59.383,240.000 60.582 C 238.500 61.977,236.038 62.194,235.573 60.972 C 234.965 59.373,230.353 59.721,229.914 61.399 C 229.774 61.937,229.273 62.174,227.892 62.357 C 226.882 62.491,225.735 62.838,225.343 63.127 C 224.479 63.764,222.478 62.211,222.865 61.203 C 222.998 60.856,222.906 60.698,222.624 60.792 C 222.372 60.876,222.190 61.086,222.218 61.260 C 222.246 61.433,221.883 61.767,221.412 62.002 C 220.153 62.630,220.182 64.878,221.454 65.179 C 222.724 65.479,222.831 66.220,221.625 66.362 C 219.025 66.669,220.824 67.732,224.216 67.894 C 226.116 67.985,226.585 69.034,225.361 70.457 C 224.705 71.219,224.463 71.323,224.304 70.908 C 224.000 70.116,223.294 70.254,223.060 71.152 C 222.947 71.581,222.338 72.158,221.705 72.433 C 221.065 72.712,220.833 72.940,221.182 72.948 C 222.229 72.973,222.321 73.675,221.336 74.123 C 220.599 74.459,220.385 74.860,220.297 76.069 C 220.202 77.357,220.071 77.574,219.444 77.472 C 218.345 77.294,217.765 77.307,215.926 77.552 C 210.551 78.268,207.778 78.160,207.778 77.235 C 207.778 76.573,207.526 76.303,206.759 76.145 C 205.142 75.812,203.157 75.762,202.701 76.044 C 202.437 76.208,202.188 75.859,202.024 75.096 C 201.882 74.432,201.594 73.675,201.383 73.413 C 201.115 73.081,201.141 72.673,201.469 72.060 C 201.728 71.577,201.834 71.012,201.706 70.805 C 201.578 70.597,201.379 69.631,201.265 68.657 C 200.935 65.856,200.415 65.331,197.289 64.646 C 195.935 64.349,196.196 63.572,197.729 63.333 C 199.249 63.097,199.267 62.477,197.762 62.170 C 197.122 62.039,196.413 61.747,196.188 61.521 C 195.962 61.296,195.461 61.111,195.075 61.111 C 194.688 61.111,193.888 60.593,193.296 59.960 C 192.652 59.271,192.000 58.895,191.669 59.022 C 191.366 59.138,190.279 58.963,189.254 58.632 C 187.290 57.998,186.343 58.425,186.308 59.961 C 186.300 60.302,186.004 60.176,185.439 59.591 C 184.968 59.103,184.306 58.537,183.969 58.333 C 182.754 57.598,182.947 54.513,184.337 52.458 C 185.007 51.468,185.556 50.343,185.556 49.958 C 185.556 48.892,186.253 49.126,186.506 50.278 C 186.629 50.838,186.939 51.880,187.194 52.593 C 187.486 53.409,187.552 54.369,187.372 55.185 C 186.990 56.919,187.117 56.980,190.648 56.761 C 194.008 56.553,193.716 56.810,193.868 53.917 C 193.898 53.339,194.217 53.189,195.564 53.123 C 197.951 53.006,199.243 52.424,199.019 51.569 C 198.918 51.184,199.111 50.648,199.450 50.366 C 200.264 49.690,201.339 50.353,201.180 51.433 C 201.104 51.951,201.263 52.222,201.643 52.222 C 201.982 52.222,202.222 51.904,202.222 51.453 C 202.222 51.030,202.749 50.157,203.392 49.514 C 204.519 48.387,205.006 46.812,204.788 45.000 C 204.739 44.593,204.706 42.602,204.714 40.576 C 204.731 36.517,203.164 32.263,201.743 32.512 C 201.414 32.570,200.887 32.225,200.573 31.745 C 200.258 31.265,199.239 30.492,198.307 30.027 C 197.376 29.561,196.519 28.936,196.405 28.637 C 196.265 28.272,195.905 28.166,195.313 28.315 C 193.342 28.809,190.813 25.426,192.095 24.010 C 192.540 23.519,192.784 22.514,192.872 20.814 C 193.045 17.478,193.927 14.558,194.965 13.878 C 196.002 13.198,195.877 11.282,194.778 10.994 C 194.391 10.893,194.074 10.487,194.074 10.092 C 194.074 8.082,188.018 7.168,186.272 8.914 M269.484 11.046 C 269.175 11.547,269.111 14.646,269.401 15.114 C 270.467 16.839,272.915 15.050,272.033 13.191 C 271.399 11.856,269.810 10.519,269.484 11.046 M300.370 28.333 C 300.370 28.639,300.214 28.889,300.022 28.889 C 299.555 28.889,299.220 28.311,299.516 28.015 C 299.933 27.598,300.370 27.761,300.370 28.333 M292.377 30.595 C 293.352 30.969,293.108 32.478,292.039 32.683 C 290.916 32.898,290.328 32.280,290.614 31.184 C 290.831 30.357,291.325 30.191,292.377 30.595 M164.074 125.201 C 135.665 125.961,139.491 125.628,139.811 127.315 C 140.292 129.847,140.376 134.113,139.960 134.890 C 139.449 135.844,140.236 137.370,144.247 143.205 C 144.635 143.770,145.364 144.080,146.749 144.270 C 148.297 144.483,148.948 144.798,149.877 145.782 C 150.523 146.466,151.839 147.445,152.801 147.957 C 153.764 148.469,154.761 149.061,155.017 149.274 C 155.273 149.486,156.374 149.710,157.464 149.771 C 158.553 149.832,159.944 150.145,160.556 150.466 C 162.228 151.345,169.323 158.846,170.966 161.471 L 172.407 163.777 182.222 163.563 L 192.037 163.349 194.687 160.607 C 204.196 150.770,202.778 134.184,191.732 126.052 C 190.531 125.168,189.275 124.468,188.941 124.498 C 188.607 124.527,177.417 124.843,164.074 125.201 M304.647 158.655 C 308.156 159.284,309.746 160.846,309.064 162.996 C 308.798 163.833,304.696 166.667,303.750 166.667 C 301.390 166.667,298.587 169.180,299.703 170.295 C 299.946 170.539,300.261 171.614,300.402 172.684 C 300.542 173.754,300.914 175.876,301.228 177.400 C 301.850 180.420,301.316 179.741,307.634 185.556 C 310.245 187.959,310.854 190.158,309.483 192.231 C 308.947 193.041,308.341 193.704,308.137 193.704 C 306.748 193.704,305.948 197.223,306.847 199.376 C 307.622 201.231,307.208 202.717,305.365 204.696 C 303.095 207.134,302.212 211.012,303.530 212.756 C 303.876 213.213,304.074 214.332,304.074 215.823 C 304.074 218.470,303.670 218.901,301.883 218.161 C 300.477 217.579,299.188 218.243,297.296 220.525 C 295.254 222.988,293.265 222.984,290.437 220.510 C 288.618 218.919,288.365 218.810,286.869 218.979 C 284.837 219.207,284.235 218.723,280.998 214.259 C 277.733 209.757,275.826 208.396,270.810 206.988 C 264.981 205.353,264.386 204.633,264.311 199.114 C 264.257 195.227,263.005 192.340,261.084 191.675 C 260.203 191.370,259.057 189.012,258.346 186.040 C 257.692 183.309,257.698 183.228,258.838 178.746 C 260.105 173.763,265.696 170.993,280.370 168.077 C 281.903 167.772,283.091 167.290,283.640 166.751 C 284.668 165.738,287.152 164.817,288.149 165.078 C 288.564 165.187,289.621 164.798,290.672 164.152 C 291.666 163.540,292.779 162.980,293.145 162.908 C 293.510 162.837,293.925 162.528,294.067 162.222 C 295.428 159.284,295.829 158.707,296.667 158.477 C 298.154 158.068,301.829 158.150,304.647 158.655 M320.135 197.880 C 320.868 198.417,320.610 199.630,319.762 199.630 C 318.685 199.630,317.362 198.464,317.817 197.916 C 318.345 197.279,319.292 197.264,320.135 197.880 M321.389 206.663 C 322.051 207.066,322.593 207.491,322.593 207.606 C 322.593 208.638,316.633 209.565,315.360 208.731 C 312.267 206.705,318.148 204.687,321.389 206.663 M35.589 218.861 C 35.302 219.042,34.838 219.103,34.557 218.995 C 33.493 218.587,30.992 221.658,31.254 223.053 C 31.613 224.964,33.584 226.693,35.176 226.492 C 38.051 226.128,39.115 224.152,37.955 221.331 C 36.786 218.487,36.558 218.248,35.589 218.861 M303.939 220.183 C 304.056 220.487,304.287 220.653,304.452 220.551 C 304.617 220.449,304.629 220.825,304.479 221.386 C 304.117 222.740,303.091 222.908,302.542 221.704 C 302.210 220.974,302.219 220.635,302.583 220.196 C 303.179 219.479,303.667 219.474,303.939 220.183 M82.111 295.535 C 80.950 296.915,78.889 303.412,78.889 305.693 C 78.889 314.315,81.328 320.045,84.764 319.496 C 85.866 319.319,87.084 319.538,89.635 320.372 L 93.036 321.484 94.660 320.765 C 95.553 320.370,96.847 319.618,97.536 319.092 C 98.224 318.567,99.518 317.885,100.412 317.576 C 104.517 316.156,106.940 313.169,106.525 310.040 C 106.400 309.101,106.122 306.767,105.908 304.852 C 105.448 300.753,105.102 299.989,102.412 297.145 L 100.383 295.000 99.636 295.926 L 98.889 296.852 98.241 296.039 C 97.655 295.305,97.147 295.206,92.963 295.013 C 90.417 294.896,87.144 294.714,85.691 294.610 C 83.109 294.426,83.027 294.447,82.111 295.535 M50.282 296.078 C 48.005 297.430,47.194 298.417,46.132 301.124 C 44.920 304.212,44.651 304.436,43.898 302.981 C 42.197 299.691,40.314 298.767,38.540 300.351 C 37.514 301.268,36.005 301.923,34.709 302.016 C 34.549 302.028,34.299 302.215,34.153 302.433 C 34.008 302.651,33.107 303.203,32.150 303.660 C 27.017 306.113,24.932 313.942,27.358 321.652 C 27.996 323.681,28.519 325.564,28.519 325.836 C 28.519 326.108,29.100 327.573,29.811 329.091 L 31.104 331.852 32.999 331.852 C 37.028 331.852,41.856 324.926,43.672 316.542 C 44.106 314.539,44.710 312.304,45.014 311.576 L 45.567 310.252 46.493 311.122 C 47.002 311.600,48.087 313.231,48.904 314.746 C 52.249 320.947,54.931 323.384,58.836 323.773 C 62.065 324.094,62.246 323.983,63.932 320.655 C 68.635 311.375,64.933 296.435,58.126 297.225 C 55.908 297.482,55.823 297.459,54.798 296.337 C 53.536 294.956,52.290 294.884,50.282 296.078 M95.992 299.630 C 97.149 301.361,98.264 302.968,98.470 303.201 C 98.676 303.434,98.743 303.726,98.620 303.849 C 98.496 303.973,98.569 304.074,98.782 304.074 C 98.995 304.074,99.376 303.824,99.630 303.519 C 100.329 302.676,100.727 302.841,101.300 304.211 C 102.841 307.899,102.212 312.678,100.117 313.193 C 99.543 313.334,98.243 314.192,97.228 315.100 C 94.755 317.311,91.111 318.234,91.111 316.650 C 91.111 316.455,90.861 316.296,90.556 316.296 C 90.250 316.296,90.000 316.158,90.000 315.989 C 90.000 315.819,89.584 315.458,89.075 315.185 C 88.566 314.913,88.224 314.615,88.316 314.523 C 88.556 314.283,85.678 311.941,84.801 311.662 C 84.395 311.534,84.152 311.285,84.260 311.110 C 84.368 310.935,84.261 310.671,84.023 310.524 C 83.752 310.357,83.688 310.416,83.854 310.684 C 83.999 310.919,83.933 311.111,83.707 311.111 C 83.137 311.111,82.312 309.004,82.021 306.806 C 81.661 304.099,82.455 302.465,84.624 301.445 C 85.565 301.003,86.774 300.065,87.311 299.360 C 90.523 295.150,93.052 295.229,95.992 299.630 M121.994 296.736 C 121.723 297.175,120.843 300.408,120.484 302.287 C 120.265 303.430,121.171 307.450,122.286 310.283 C 123.378 313.057,124.716 314.074,127.275 314.074 C 130.576 314.074,131.012 313.541,131.663 308.704 C 131.800 307.685,132.417 305.820,133.034 304.558 L 134.155 302.264 132.950 300.484 C 132.287 299.505,131.632 298.287,131.495 297.778 C 131.276 296.961,130.987 296.824,129.049 296.614 C 125.308 296.210,122.287 296.262,121.994 296.736 M381.481 296.915 C 381.176 297.019,380.403 297.700,379.763 298.429 C 378.747 299.586,378.420 299.737,377.171 299.628 C 369.933 298.994,368.105 300.985,368.025 309.595 C 367.947 317.897,371.434 320.092,380.324 317.337 C 382.734 316.589,385.926 307.753,385.926 301.826 C 385.926 297.778,384.280 295.959,381.481 296.915 M145.895 298.828 C 146.317 299.655,147.038 300.726,147.498 301.206 C 147.957 301.687,148.517 302.403,148.742 302.797 C 149.110 303.441,149.219 303.457,149.821 302.960 C 150.339 302.533,150.527 302.514,150.649 302.877 C 151.118 304.270,151.918 304.519,152.919 303.583 C 154.174 302.411,156.116 301.437,156.736 301.669 C 157.003 301.769,158.384 301.101,159.804 300.185 C 161.223 299.268,162.807 298.498,163.322 298.472 C 165.781 298.351,159.673 297.843,152.804 297.598 L 145.128 297.324 145.895 298.828 M175.333 298.828 C 176.040 299.972,186.057 301.729,188.672 301.168 C 190.721 300.728,194.139 300.605,196.481 300.888 C 197.296 300.987,198.088 301.077,198.241 301.089 C 198.394 301.101,198.519 301.298,198.519 301.527 C 198.519 303.008,200.655 307.215,201.769 307.927 C 202.779 308.572,202.969 308.905,202.892 309.892 C 202.826 310.736,203.146 311.573,203.996 312.779 C 204.927 314.100,205.113 314.628,204.831 315.155 C 204.306 316.136,205.240 316.815,208.395 317.747 C 210.777 318.451,211.290 318.783,213.395 320.982 C 214.958 322.614,216.420 323.734,217.778 324.338 C 220.536 325.566,221.852 326.863,221.852 328.357 C 221.852 329.007,222.119 329.761,222.446 330.032 C 222.773 330.303,223.183 330.901,223.358 331.361 C 223.533 331.821,224.343 332.681,225.159 333.272 C 230.582 337.200,231.701 339.323,232.547 347.282 C 232.958 351.151,233.885 351.592,239.715 350.698 C 243.845 350.065,247.176 348.105,248.188 345.714 C 248.574 344.802,252.641 342.497,254.139 342.341 C 255.686 342.179,255.838 342.261,258.573 344.744 C 260.141 346.167,262.730 348.021,264.373 348.896 C 266.006 349.766,268.433 351.295,269.767 352.294 C 273.437 355.043,279.301 355.421,287.903 353.465 C 290.575 352.857,291.470 352.892,297.236 353.824 C 302.977 354.753,312.184 358.273,314.815 360.544 C 316.053 361.613,320.047 363.385,323.529 364.410 C 334.525 367.648,344.776 366.655,347.086 362.127 C 347.946 360.441,349.579 358.519,350.154 358.517 C 350.375 358.516,350.806 357.724,351.111 356.757 L 351.667 355.000 356.296 355.104 C 359.993 355.188,361.229 355.356,362.432 355.938 C 363.260 356.339,364.208 356.667,364.540 356.667 C 364.871 356.667,365.244 356.833,365.370 357.037 C 365.496 357.241,365.925 357.407,366.323 357.407 C 366.721 357.407,367.351 357.597,367.722 357.829 C 369.124 358.704,372.019 357.776,372.151 356.409 C 372.272 355.170,369.797 351.612,367.952 350.370 C 367.498 350.065,366.314 348.961,365.322 347.918 C 363.838 346.357,363.060 345.876,360.926 345.203 C 359.500 344.752,358.000 344.080,357.593 343.709 C 357.185 343.338,356.233 342.867,355.477 342.662 C 353.832 342.217,350.000 339.018,350.000 338.090 C 350.000 334.553,338.131 326.670,327.963 323.453 L 322.407 321.695 318.841 318.071 C 313.551 312.695,312.039 312.059,304.444 312.011 L 298.704 311.975 293.704 310.275 C 290.954 309.340,286.542 308.057,283.901 307.423 C 278.047 306.019,273.406 304.625,270.891 303.516 C 269.167 302.756,268.061 302.647,258.113 302.257 C 252.123 302.022,246.556 301.751,245.741 301.655 L 244.259 301.481 245.271 302.383 C 245.915 302.958,246.925 303.363,248.049 303.498 C 249.020 303.615,250.981 303.966,252.407 304.278 C 253.833 304.591,256.538 304.995,258.418 305.177 C 261.977 305.523,268.103 307.366,271.648 309.160 C 273.549 310.122,278.349 311.616,280.926 312.048 C 285.419 312.801,289.619 314.208,292.778 316.018 C 301.029 320.745,307.363 325.199,308.783 327.272 C 309.481 328.292,309.726 328.570,312.963 332.019 C 314.498 333.655,314.726 334.023,313.889 333.511 C 313.117 333.040,313.471 333.561,315.047 335.213 C 319.237 339.607,320.195 342.684,318.175 345.252 C 316.394 347.517,308.999 348.124,305.088 346.327 C 304.118 345.882,303.159 345.620,302.956 345.745 C 302.753 345.870,302.498 345.740,302.389 345.456 C 302.280 345.171,301.989 344.934,301.743 344.929 C 301.007 344.913,290.379 338.994,288.605 337.613 C 285.920 335.521,281.562 334.255,279.155 334.869 C 278.092 335.140,276.847 335.316,276.389 335.260 C 275.931 335.203,275.556 335.293,275.556 335.459 C 275.556 335.625,274.886 335.696,274.067 335.618 C 273.248 335.540,272.347 335.669,272.063 335.904 C 271.710 336.198,271.472 336.210,271.307 335.944 C 271.175 335.730,270.335 335.556,269.441 335.556 C 268.546 335.556,266.931 335.357,265.852 335.114 C 264.772 334.872,263.764 334.705,263.611 334.744 C 263.458 334.783,263.333 334.638,263.333 334.423 C 263.333 334.207,263.167 334.133,262.963 334.259 C 262.759 334.385,262.593 334.312,262.593 334.096 C 262.593 333.880,262.468 333.723,262.315 333.748 C 261.033 333.950,259.127 332.297,257.939 329.952 C 256.676 327.460,255.773 327.503,253.727 330.154 C 252.236 332.088,249.715 334.525,247.528 336.147 C 246.692 336.768,245.727 336.969,242.726 337.148 C 237.509 337.459,237.797 337.980,237.827 328.282 C 237.859 317.698,237.863 317.706,230.288 314.056 C 228.195 313.047,226.065 311.885,225.556 311.475 L 224.630 310.728 225.726 309.825 C 226.904 308.855,226.904 308.838,225.648 308.185 C 224.515 307.596,224.597 307.238,226.063 306.374 C 226.986 305.829,227.359 305.313,227.494 304.393 C 227.706 302.953,226.714 300.444,226.232 301.202 C 226.051 301.487,225.935 301.509,225.932 301.259 C 225.923 300.618,217.120 300.214,216.371 300.821 C 215.879 301.219,215.830 301.207,216.067 300.741 C 216.413 300.065,215.560 301.102,214.983 302.060 C 214.531 302.812,211.563 302.050,209.925 300.761 C 209.165 300.163,207.494 300.019,195.182 299.489 C 187.545 299.160,179.901 298.791,178.196 298.668 C 176.102 298.517,175.173 298.569,175.333 298.828 M55.240 303.201 C 56.217 304.137,56.346 304.162,58.223 303.775 C 61.263 303.149,62.732 305.623,62.469 310.926 C 62.277 314.814,61.783 315.370,58.521 315.370 L 55.767 315.370 54.159 313.704 C 53.275 312.787,52.299 311.565,51.991 310.988 C 51.387 309.856,51.062 304.741,51.616 305.083 C 51.799 305.196,51.872 305.060,51.779 304.781 C 51.686 304.502,51.880 304.021,52.211 303.711 C 52.684 303.268,52.691 303.227,52.240 303.519 C 51.746 303.838,51.735 303.802,52.157 303.263 C 52.437 302.905,52.899 302.733,53.236 302.863 C 53.627 303.013,53.735 302.943,53.557 302.656 C 53.055 301.842,54.214 302.218,55.240 303.201 M382.738 303.549 C 384.027 306.907,381.512 312.083,379.670 309.864 C 379.060 309.128,379.053 305.185,379.662 305.185 C 379.815 305.185,380.051 304.685,380.185 304.074 C 380.462 302.813,382.310 302.433,382.738 303.549 M6.020 306.019 C 4.134 308.395,4.196 315.057,6.111 315.792 C 6.707 316.021,11.686 314.632,12.450 314.024 C 13.008 313.581,13.346 310.843,13.030 309.326 C 12.805 308.244,12.540 308.016,10.831 307.438 C 9.762 307.076,8.583 306.504,8.211 306.168 C 7.406 305.439,6.527 305.380,6.020 306.019 M375.816 306.389 C 377.724 308.483,376.956 311.111,374.436 311.111 C 373.078 311.111,372.593 310.456,372.593 308.625 C 372.593 305.743,374.206 304.623,375.816 306.389 M38.719 307.803 C 38.854 308.021,39.206 308.106,39.501 307.992 C 39.797 307.879,39.945 307.938,39.831 308.123 C 39.716 308.307,39.837 308.681,40.098 308.952 C 40.625 309.497,40.745 313.596,40.256 314.352 C 40.091 314.606,40.064 314.989,40.195 315.201 C 40.327 315.414,40.233 315.831,39.987 316.127 C 39.740 316.424,39.663 316.667,39.815 316.667 C 39.967 316.667,39.883 316.917,39.630 317.222 C 39.376 317.528,39.271 317.778,39.395 317.778 C 39.718 317.778,38.552 319.204,37.078 320.614 C 32.715 324.786,27.610 317.341,30.622 311.198 C 31.833 308.729,37.757 306.245,38.719 307.803 M221.852 331.424 C 221.852 331.596,222.211 332.055,222.650 332.443 L 223.448 333.148 222.793 332.130 C 222.117 331.079,221.852 330.881,221.852 331.424 " stroke="none" fill="#3c4546" fill-rule="evenodd"></path><path id="path3" d="M296.667 158.477 C 295.829 158.707,295.428 159.284,294.067 162.222 C 293.925 162.528,293.510 162.837,293.145 162.908 C 292.779 162.980,291.666 163.540,290.672 164.152 C 289.621 164.798,288.564 165.187,288.149 165.078 C 287.152 164.817,284.668 165.738,283.640 166.751 C 283.091 167.290,281.903 167.772,280.370 168.077 C 267.402 170.654,264.615 171.734,260.806 175.657 C 258.374 178.161,257.422 182.180,258.346 186.040 C 259.057 189.012,260.203 191.370,261.084 191.675 C 263.005 192.340,264.257 195.227,264.311 199.114 C 264.386 204.639,264.977 205.352,270.841 206.997 C 275.869 208.408,278.129 210.047,281.823 214.962 C 284.641 218.711,284.879 218.889,287.073 218.889 C 288.248 218.889,288.922 219.209,290.566 220.548 C 293.506 222.943,297.887 222.300,297.451 219.537 C 297.427 219.384,297.591 219.259,297.814 219.259 C 298.038 219.259,298.735 218.718,299.363 218.056 C 299.990 217.394,300.382 217.058,300.233 217.311 C 300.049 217.621,300.147 217.698,300.534 217.550 C 300.849 217.429,301.006 217.166,300.882 216.966 C 300.752 216.756,301.040 216.653,301.565 216.722 C 303.035 216.914,303.823 215.818,303.542 213.970 C 302.687 208.342,302.907 207.219,305.410 204.400 C 307.172 202.416,307.462 201.043,306.614 198.698 C 305.973 196.926,306.490 195.040,308.002 193.628 C 310.878 190.945,310.763 188.436,307.634 185.556 C 301.316 179.741,301.850 180.420,301.228 177.400 C 300.914 175.876,300.542 173.754,300.402 172.684 C 300.261 171.614,299.946 170.539,299.703 170.295 C 298.587 169.180,301.390 166.667,303.750 166.667 C 304.696 166.667,308.798 163.833,309.064 162.996 C 309.323 162.179,308.469 159.871,307.740 159.421 C 306.272 158.514,298.838 157.879,296.667 158.477 " stroke="none" fill="#5c6462" fill-rule="evenodd"></path><path id="path4" d="M303.775 214.378 C 303.687 215.900,302.763 216.879,301.565 216.722 C 300.913 216.636,300.738 216.734,300.945 217.068 C 301.147 217.395,301.051 217.463,300.622 217.299 C 300.224 217.146,299.870 217.328,299.607 217.820 C 299.238 218.510,299.270 218.539,299.984 218.157 C 300.573 217.842,301.081 217.853,302.049 218.203 C 303.816 218.842,304.140 218.390,303.979 215.518 C 303.906 214.215,303.814 213.702,303.775 214.378 M282.222 215.926 C 282.657 216.537,283.097 217.037,283.199 217.037 C 283.300 217.037,283.028 216.537,282.593 215.926 C 282.157 215.315,281.718 214.815,281.616 214.815 C 281.514 214.815,281.787 215.315,282.222 215.926 M302.583 220.196 C 302.219 220.635,302.210 220.974,302.542 221.704 C 303.091 222.908,304.117 222.740,304.479 221.386 C 304.629 220.825,304.617 220.449,304.452 220.551 C 304.287 220.653,304.056 220.487,303.939 220.183 C 303.667 219.474,303.179 219.479,302.583 220.196 M89.607 297.176 C 88.882 297.673,87.849 298.656,87.311 299.360 C 86.774 300.065,85.565 301.003,84.624 301.445 C 82.455 302.465,81.661 304.099,82.021 306.806 C 82.312 309.004,83.137 311.111,83.707 311.111 C 83.933 311.111,83.999 310.919,83.854 310.684 C 83.688 310.416,83.752 310.357,84.023 310.524 C 84.261 310.671,84.368 310.935,84.260 311.110 C 84.152 311.285,84.395 311.534,84.801 311.662 C 85.678 311.941,88.556 314.283,88.316 314.523 C 88.224 314.615,88.566 314.913,89.075 315.185 C 89.584 315.458,90.000 315.819,90.000 315.989 C 90.000 316.158,90.250 316.296,90.556 316.296 C 90.861 316.296,91.111 316.455,91.111 316.650 C 91.111 318.234,94.755 317.311,97.228 315.100 C 98.243 314.192,99.543 313.334,100.117 313.193 C 102.212 312.678,102.841 307.899,101.300 304.211 C 100.727 302.841,100.329 302.676,99.630 303.519 C 99.376 303.824,98.995 304.074,98.782 304.074 C 98.569 304.074,98.496 303.973,98.620 303.849 C 98.743 303.726,98.676 303.434,98.470 303.201 C 98.264 302.968,97.149 301.361,95.992 299.630 C 93.521 295.931,92.178 295.415,89.607 297.176 M209.598 300.517 C 210.038 301.047,213.663 302.593,214.466 302.593 C 214.667 302.593,215.018 302.181,215.247 301.678 C 215.476 301.175,215.795 300.845,215.954 300.944 C 216.114 301.042,216.333 300.982,216.440 300.809 C 216.547 300.635,216.433 300.493,216.187 300.492 C 215.942 300.491,214.253 300.369,212.434 300.221 C 209.491 299.980,209.179 300.013,209.598 300.517 M226.667 300.910 C 226.667 301.041,226.896 301.598,227.177 302.148 C 227.993 303.747,227.529 305.509,226.063 306.374 C 224.597 307.238,224.515 307.596,225.648 308.185 C 226.904 308.838,226.904 308.855,225.726 309.825 L 224.630 310.728 225.556 311.475 C 226.065 311.885,228.195 313.047,230.288 314.056 C 237.863 317.706,237.859 317.698,237.827 328.282 C 237.797 337.980,237.509 337.459,242.726 337.148 C 245.727 336.969,246.692 336.768,247.528 336.147 C 249.715 334.525,252.236 332.088,253.727 330.154 C 255.773 327.503,256.676 327.460,257.939 329.952 C 259.127 332.297,261.033 333.950,262.315 333.748 C 262.468 333.723,262.593 333.880,262.593 334.096 C 262.593 334.312,262.759 334.385,262.963 334.259 C 263.167 334.133,263.333 334.207,263.333 334.423 C 263.333 334.638,263.458 334.783,263.611 334.744 C 263.764 334.705,264.772 334.872,265.852 335.114 C 266.931 335.357,268.546 335.556,269.441 335.556 C 270.335 335.556,271.175 335.730,271.307 335.944 C 271.472 336.210,271.710 336.198,272.063 335.904 C 272.347 335.669,273.248 335.540,274.067 335.618 C 274.886 335.696,275.556 335.625,275.556 335.459 C 275.556 335.293,275.931 335.203,276.389 335.260 C 276.847 335.316,278.092 335.140,279.155 334.869 C 281.562 334.255,285.920 335.521,288.605 337.613 C 290.379 338.994,301.007 344.913,301.743 344.929 C 301.989 344.934,302.280 345.171,302.389 345.456 C 302.498 345.740,302.753 345.870,302.956 345.745 C 303.159 345.620,304.118 345.882,305.088 346.327 C 308.999 348.124,316.394 347.517,318.175 345.252 C 320.195 342.684,319.237 339.607,315.047 335.213 C 313.471 333.561,313.117 333.040,313.889 333.511 C 314.726 334.023,314.498 333.655,312.963 332.019 C 309.726 328.570,309.481 328.292,308.783 327.272 C 307.363 325.199,301.029 320.745,292.778 316.018 C 289.619 314.208,285.419 312.801,280.926 312.048 C 278.349 311.616,273.549 310.122,271.648 309.160 C 268.103 307.366,261.977 305.523,258.418 305.177 C 256.538 304.995,253.833 304.591,252.407 304.278 C 250.981 303.966,249.024 303.616,248.057 303.500 C 247.008 303.374,245.889 302.943,245.280 302.432 C 244.319 301.626,243.850 301.562,237.222 301.332 C 233.352 301.198,229.394 300.995,228.426 300.880 C 227.458 300.765,226.667 300.778,226.667 300.910 M53.557 302.656 C 53.735 302.943,53.627 303.013,53.236 302.863 C 52.899 302.733,52.437 302.905,52.157 303.263 C 51.735 303.802,51.746 303.838,52.240 303.519 C 52.691 303.227,52.684 303.268,52.211 303.711 C 51.880 304.021,51.686 304.502,51.779 304.781 C 51.872 305.060,51.799 305.196,51.616 305.083 C 51.062 304.741,51.387 309.856,51.991 310.988 C 52.299 311.565,53.275 312.787,54.159 313.704 L 55.767 315.370 58.521 315.370 C 61.783 315.370,62.277 314.814,62.469 310.926 C 62.732 305.623,61.263 303.149,58.223 303.775 C 56.346 304.162,56.217 304.137,55.240 303.201 C 54.214 302.218,53.055 301.842,53.557 302.656 M380.185 304.074 C 380.051 304.685,379.815 305.185,379.662 305.185 C 379.053 305.185,379.060 309.128,379.670 309.864 C 381.512 312.083,384.027 306.907,382.738 303.549 C 382.310 302.433,380.462 302.813,380.185 304.074 M373.052 306.291 C 372.465 307.231,372.456 310.085,373.037 310.667 C 374.460 312.089,377.175 310.592,376.817 308.582 C 376.362 306.027,374.083 304.640,373.052 306.291 M33.333 308.650 C 27.770 311.856,29.173 322.763,35.041 321.925 C 36.030 321.784,40.237 317.778,39.395 317.778 C 39.271 317.778,39.376 317.528,39.630 317.222 C 39.883 316.917,39.967 316.667,39.815 316.667 C 39.663 316.667,39.740 316.424,39.987 316.127 C 40.233 315.831,40.327 315.414,40.195 315.201 C 40.064 314.989,40.091 314.606,40.256 314.352 C 40.745 313.596,40.625 309.497,40.098 308.952 C 39.837 308.681,39.716 308.307,39.831 308.123 C 39.945 307.938,39.797 307.879,39.501 307.992 C 39.206 308.106,38.854 308.021,38.719 307.803 C 38.226 307.006,35.421 307.447,33.333 308.650 " stroke="none" fill="#5e453e" fill-rule="evenodd"></path></g></svg>